HIERARCHY
ROOT hip
{
  OFFSET 0.00112043 5.09927 -9.65472
  CHANNELS 6 Xposition Yposition Zposition Zrotation Xrotation Yrotation
  JOINT abdomen
  {
    OFFSET 0 -1.186 -1.5018
    CHANNELS 3 Zrotation Xrotation Yrotation
    JOINT abdomen2
    {
      OFFSET 0 9.964 0.2134
      CHANNELS 3 Zrotation Xrotation Yrotation
      JOINT chest
      {
        OFFSET 0 13.134 -3.2573
        CHANNELS 3 Zrotation Xrotation Yrotation
        JOINT neck
        {
          OFFSET 0 20.686 -1.6905
          CHANNELS 3 Zrotation Xrotation Yrotation
          JOINT head
          {
            OFFSET 0 7.238 -0.1237
            CHANNELS 3 Zrotation Xrotation Yrotation
            End Site
            {
              OFFSET 0 0 0
            }
          }
        }
        JOINT lCollar
        {
          OFFSET 1.7069 20.075 5.0056
          CHANNELS 3 Zrotation Xrotation Yrotation
          JOINT lShldr
          {
            OFFSET 13.6458 -0.047 -4.849
            CHANNELS 3 Zrotation Xrotation Yrotation
            JOINT lForeArm
            {
              OFFSET 28.3255 -0.9759 2.2888
              CHANNELS 3 Zrotation Xrotation Yrotation
              JOINT lHand
              {
                OFFSET 22.1583 -0.53 10.8316
                CHANNELS 3 Zrotation Xrotation Yrotation
                JOINT lThumb1
                {
                  OFFSET 0.786 0.112 2.5817
                  CHANNELS 3 Zrotation Xrotation Yrotation
                  JOINT lThumb2
                  {
                    OFFSET 0.3601 -0.878 4.2331
                    CHANNELS 3 Zrotation Xrotation Yrotation
                    JOINT lThumb2_End
                    {
                      OFFSET 1.8127 -1.216 2.2227
                      CHANNELS 3 Zrotation Xrotation Yrotation
                      End Site
                      {
                        OFFSET 0.0181 -0.0122 0.0222
                      }
                    }
                  }
                }
                JOINT lCarpal1
                {
                  OFFSET 0.9571 1.114 1.7695
                  CHANNELS 3 Zrotation Xrotation Yrotation
                  JOINT lIndex1
                  {
                    OFFSET 4.1246 0.487 4.1451
                    CHANNELS 3 Zrotation Xrotation Yrotation
                    JOINT lIndex2
                    {
                      OFFSET 3.4052 -1.454 2.7682
                      CHANNELS 3 Zrotation Xrotation Yrotation
                      JOINT lIndex2_End
                      {
                        OFFSET 1.4531 -1.795 1.2713
                        CHANNELS 3 Zrotation Xrotation Yrotation
                        End Site
                        {
                          OFFSET 0.0145 -0.0179 0.0127
                        }
                      }
                    }
                  }
                  JOINT lMid1
                  {
                    OFFSET 5.6954 0.21 2.1184
                    CHANNELS 3 Zrotation Xrotation Yrotation
                    JOINT lMid2
                    {
                      OFFSET 3.9766 -1.54 2.3863
                      CHANNELS 3 Zrotation Xrotation Yrotation
                      JOINT lMid2_End
                      {
                        OFFSET 1.4042 -1.926 1.125
                        CHANNELS 3 Zrotation Xrotation Yrotation
                        End Site
                        {
                          OFFSET 0.014 -0.0193 0.0113
                        }
                      }
                    }
                  }
                }
                JOINT lCarpal2
                {
                  OFFSET 2.0956 0.66 -0.3894
                  CHANNELS 3 Zrotation Xrotation Yrotation
                  JOINT lRing1
                  {
                    OFFSET 5.0395 -0.09 2.4971
                    CHANNELS 3 Zrotation Xrotation Yrotation
                    JOINT lRing2
                    {
                      OFFSET 3.7921 -1.552 1.4806
                      CHANNELS 3 Zrotation Xrotation Yrotation
                      JOINT lRing2_End
                      {
                        OFFSET 1.4655 -1.808 0.9609
                        CHANNELS 3 Zrotation Xrotation Yrotation
                        End Site
                        {
                          OFFSET 0.0147 -0.0181 0.0096
                        }
                      }
                    }
                  }
                  JOINT lPinky1
                  {
                    OFFSET 4.9141 -1.269 0.3591
                    CHANNELS 3 Zrotation Xrotation Yrotation
                    JOINT lPinky2
                    {
                      OFFSET 3.1477 -1.685 0.8462
                      CHANNELS 3 Zrotation Xrotation Yrotation
                      JOINT lPinky2_End
                      {
                        OFFSET 0.8055 -1.585 0.7955
                        CHANNELS 3 Zrotation Xrotation Yrotation
                        End Site
                        {
                          OFFSET 0.0081 -0.0158 0.008
                        }
                      }
                    }
                  }
                }
              }
            }
          }
        }
        JOINT rCollar
        {
          OFFSET -1.7069 20.075 5.0056
          CHANNELS 3 Zrotation Xrotation Yrotation
          JOINT rShldr
          {
            OFFSET -13.6458 -0.047 -4.849
            CHANNELS 3 Zrotation Xrotation Yrotation
            JOINT rForeArm
            {
              OFFSET -28.3255 -0.9759 2.2888
              CHANNELS 3 Zrotation Xrotation Yrotation
              JOINT rHand
              {
                OFFSET -22.1583 -0.53 10.8316
                CHANNELS 3 Zrotation Xrotation Yrotation
                JOINT rThumb1
                {
                  OFFSET -0.786 0.112 2.5817
                  CHANNELS 3 Zrotation Xrotation Yrotation
                  JOINT rThumb2
                  {
                    OFFSET -0.3601 -0.878 4.2331
                    CHANNELS 3 Zrotation Xrotation Yrotation
                    JOINT rThumb2_End
                    {
                      OFFSET -1.8127 -1.216 2.2227
                      CHANNELS 3 Zrotation Xrotation Yrotation
                      End Site
                      {
                        OFFSET -0.0181 -0.0122 0.0222
                      }
                    }
                  }
                }
                JOINT rCarpal1
                {
                  OFFSET -0.9571 1.114 1.7695
                  CHANNELS 3 Zrotation Xrotation Yrotation
                  JOINT rIndex1
                  {
                    OFFSET -4.1246 0.487 4.1451
                    CHANNELS 3 Zrotation Xrotation Yrotation
                    JOINT rIndex2
                    {
                      OFFSET -3.4052 -1.454 2.7682
                      CHANNELS 3 Zrotation Xrotation Yrotation
                      JOINT rIndex2_End
                      {
                        OFFSET -1.4531 -1.795 1.2713
                        CHANNELS 3 Zrotation Xrotation Yrotation
                        End Site
                        {
                          OFFSET -0.0145 -0.018 0.0127
                        }
                      }
                    }
                  }
                  JOINT rMid1
                  {
                    OFFSET -5.6954 0.21 2.1184
                    CHANNELS 3 Zrotation Xrotation Yrotation
                    JOINT rMid2
                    {
                      OFFSET -3.9766 -1.54 2.3863
                      CHANNELS 3 Zrotation Xrotation Yrotation
                      JOINT rMid2_End
                      {
                        OFFSET -1.4042 -1.926 1.125
                        CHANNELS 3 Zrotation Xrotation Yrotation
                        End Site
                        {
                          OFFSET -0.014 -0.0193 0.0113
                        }
                      }
                    }
                  }
                }
                JOINT rCarpal2
                {
                  OFFSET -2.0956 0.66 -0.3894
                  CHANNELS 3 Zrotation Xrotation Yrotation
                  JOINT rRing1
                  {
                    OFFSET -5.0395 -0.09 2.4971
                    CHANNELS 3 Zrotation Xrotation Yrotation
                    JOINT rRing2
                    {
                      OFFSET -3.7921 -1.552 1.4806
                      CHANNELS 3 Zrotation Xrotation Yrotation
                      JOINT rRing2_End
                      {
                        OFFSET -1.4655 -1.808 0.9609
                        CHANNELS 3 Zrotation Xrotation Yrotation
                        End Site
                        {
                          OFFSET -0.0147 -0.0181 0.0096
                        }
                      }
                    }
                  }
                  JOINT rPinky1
                  {
                    OFFSET -4.9141 -1.269 0.3592
                    CHANNELS 3 Zrotation Xrotation Yrotation
                    JOINT rPinky2
                    {
                      OFFSET -3.1477 -1.685 0.8462
                      CHANNELS 3 Zrotation Xrotation Yrotation
                      JOINT rPinky2_End
                      {
                        OFFSET -0.8055 -1.585 0.7955
                        CHANNELS 3 Zrotation Xrotation Yrotation
                        End Site
                        {
                          OFFSET -0.0081 -0.0158 0.008
                        }
                      }
                    }
                  }
                }
              }
            }
          }
        }
      }
    }
  }
  JOINT lThigh
  {
    OFFSET 8.367 -8.2066 0.5982
    CHANNELS 3 Zrotation Xrotation Yrotation
    JOINT lShin
    {
      OFFSET 2.1923 -43.463 -0.4932
      CHANNELS 3 Zrotation Xrotation Yrotation
      JOINT lFoot
      {
        OFFSET 0.7333 -45.8593 -2.6451
        CHANNELS 3 Zrotation Xrotation Yrotation
        End Site
        {
          OFFSET 2.6618 -4.2699 12.3931
        }
      }
    }
  }
  JOINT rThigh
  {
    OFFSET -8.367 -8.2066 0.5982
    CHANNELS 3 Zrotation Xrotation Yrotation
    JOINT rShin
    {
      OFFSET -2.1923 -43.463 -0.4931
      CHANNELS 3 Zrotation Xrotation Yrotation
      JOINT rFoot
      {
        OFFSET -0.7333 -45.8593 -2.6451
        CHANNELS 3 Zrotation Xrotation Yrotation
        End Site
        {
          OFFSET -2.6618 -4.2699 12.3931
        }
      }
    }
  }
}
MOTION
Frames:	6
Frame Time:	0.0333333
1.75808 53.177 39.656 0.00370789 85.295 -180 -0.633186 -3.84528 -0.159031 -1.28144 -7.68853 -0.361982 -1.28144 -7.68853 -0.361982 6.59288e-005 30.2643 -2.819e-005 -6.85915e-008 -32.8468 5.20645e-007 15.3467 10.4752 14.2761 -26.3604 20.2469 68.1032 1.09707 31.4126 18.8785 59.299 -18.6425 11.8584 1.59028e-015 1.59028e-015 6.36111e-015 4.77083e-015 0 6.36111e-015 3.18055e-015 0 -0 1.59028e-015 7.95139e-016 3.18055e-015 -0 0 6.36111e-015 0 0 -0 -1.59028e-015 0 6.36111e-015 -0 0 6.36111e-015 0 0 -0 -1.59028e-015 0 6.36111e-015 1.59028e-015 7.95139e-016 3.18055e-015 -0 0 6.36111e-015 0 0 -0 -1.59028e-015 0 6.36111e-015 -0 0 6.36111e-015 0 0 -0 -1.59028e-015 0 6.36111e-015 -15.9151 10.5414 -15.406 26.0684 20.6027 -66.3233 -1.97475 31.877 -19.5287 -59.7117 -18.6305 -12.3417 -1.59028e-015 -2.78299e-014 6.36111e-015 -1.59028e-015 -2.94201e-014 -3.18055e-015 -4.77083e-015 -3.02153e-014 9.54166e-015 -1.59028e-015 1.59028e-015 3.18055e-015 1.59028e-015 -2.8625e-014 6.36111e-015 -1.59028e-015 -2.94201e-014 -0 3.53113e-030 -3.18055e-014 6.36111e-015 1.59028e-015 -2.8625e-014 6.36111e-015 -1.59028e-015 -2.94201e-014 -0 3.53113e-030 -3.18055e-014 6.36111e-015 -1.59028e-015 1.59028e-015 3.18055e-015 1.59028e-015 -2.8625e-014 6.36111e-015 -1.59028e-015 -2.94201e-014 -0 3.53113e-030 -3.18055e-014 6.36111e-015 1.59028e-015 -2.8625e-014 6.36111e-015 -1.59028e-015 -2.94201e-014 -0 3.53113e-030 -3.18055e-014 6.36111e-015 47.2314 15.8546 50.8592 56.6977 50.881 -56.5409 10.4588 26.9401 -35.3381 -45.0802 15.5141 -50.7823 -58.9851 51.3425 58.31 -9.02462 25.777 32.6324 
1.76242 53.143 39.4255 0.00370788 85.5455 -180 -0.632663 -3.73263 -0.156662 -1.27966 -7.46329 -0.355857 -1.27966 -7.46328 -0.355856 1.61224e-005 30.6905 -1.25591e-005 -7.30712e-008 -32.8725 -2.81533e-007 15.3908 10.4451 14.8247 -26.2308 20.451 67.6396 1.26081 31.4025 18.6874 59.011 -18.7195 11.7414 -3.18055e-015 7.95139e-016 -0 1.59028e-015 3.18055e-015 6.36111e-015 3.18055e-015 3.18055e-015 -3.18055e-015 -3.18055e-015 0 -0 3.18055e-015 3.97569e-015 3.18055e-015 4.77083e-015 3.18055e-015 -3.18055e-015 3.18055e-015 3.97569e-015 -3.18055e-015 3.18055e-015 3.97569e-015 3.18055e-015 4.77083e-015 3.18055e-015 -3.18055e-015 3.18055e-015 3.97569e-015 -3.18055e-015 -3.18055e-015 0 -0 3.18055e-015 3.97569e-015 3.18055e-015 4.77083e-015 3.18055e-015 -3.18055e-015 3.18055e-015 3.97569e-015 -3.18055e-015 3.18055e-015 3.97569e-015 3.18055e-015 4.77083e-015 3.18055e-015 -3.18055e-015 3.18055e-015 3.97569e-015 -3.18055e-015 -15.952 10.517 -16.0569 25.904 20.8549 -65.7547 -2.14557 31.8645 -19.3195 -59.3959 -18.681 -12.2361 -4.06838e-007 1.10393e-006 -2.14491e-006 4.71457e-007 -7.01154e-007 1.16055e-007 -4.71457e-007 7.01154e-007 -1.16055e-007 3.18055e-015 -1.59028e-015 -3.18055e-015 -4.06838e-007 1.10393e-006 -2.14491e-006 4.71457e-007 -7.01154e-007 1.16055e-007 -4.71457e-007 7.01154e-007 -1.16055e-007 -4.06838e-007 1.10393e-006 -2.14491e-006 4.71457e-007 -7.01154e-007 1.16055e-007 -4.71457e-007 7.01154e-007 -1.16055e-007 3.18055e-015 -1.59028e-015 -3.18055e-015 -4.06838e-007 1.10393e-006 -2.14491e-006 4.71457e-007 -7.01154e-007 1.16055e-007 -4.71457e-007 7.01154e-007 -1.16055e-007 -4.06838e-007 1.10393e-006 -2.14491e-006 4.71457e-007 -7.01154e-007 1.16055e-007 -4.71457e-007 7.01154e-007 -1.16055e-007 46.9994 15.91 50.1404 56.9621 50.8902 -56.7378 9.68514 26.9768 -34.7954 -44.8395 15.6006 -50.1475 -59.3333 51.3734 58.5748 -8.31937 25.7017 32.1197 
1.76679 53.1089 39.195 0.00370788 85.796 -180 -0.632142 -3.62 -0.1543 -1.27791 -7.23806 -0.349753 -1.27791 -7.23807 -0.349753 4.25544e-005 31.1158 -2.37005e-005 -6.14738e-007 -32.8981 1.10708e-007 15.4345 10.4178 15.3732 -26.0994 20.6541 67.175 1.4245 31.392 18.4965 58.7228 -18.796 11.624 -1.59028e-015 0 -0 -3.18055e-015 2.38542e-015 -6.36111e-015 -3.18055e-015 -2.38542e-015 3.18055e-015 -1.59028e-015 7.95139e-016 -0 -1.59028e-015 1.59028e-015 -6.36111e-015 -3.18055e-015 -7.95139e-016 -0 -3.18055e-015 3.18055e-015 -3.18055e-015 -1.59028e-015 1.59028e-015 -6.36111e-015 -3.18055e-015 -7.95139e-016 -0 -3.18055e-015 3.18055e-015 -3.18055e-015 -1.59028e-015 7.95139e-016 -0 -1.59028e-015 1.59028e-015 -6.36111e-015 -3.18055e-015 -7.95139e-016 -0 -3.18055e-015 3.18055e-015 -3.18055e-015 -1.59028e-015 1.59028e-015 -6.36111e-015 -3.18055e-015 -7.95139e-016 -0 -3.18055e-015 3.18055e-015 -3.18055e-015 -15.9892 10.493 -16.7076 25.7366 21.1056 -65.1845 -2.31627 31.8515 -19.1105 -59.0799 -18.731 -12.1301 -1.59028e-015 0 3.18055e-015 -0 0 6.36111e-015 -1.59028e-015 -7.95139e-016 6.36111e-015 -1.59028e-015 2.38542e-015 -0 -1.59028e-015 2.38542e-015 -0 -3.18055e-015 -1.59028e-015 -0 -3.18055e-015 -7.95139e-016 -3.18055e-015 -1.59028e-015 2.38542e-015 -0 -3.18055e-015 -1.59028e-015 -0 -3.18055e-015 -7.95139e-016 -3.18055e-015 -1.59028e-015 2.38542e-015 -0 -1.59028e-015 2.38542e-015 -0 -3.18055e-015 -1.59028e-015 -0 -3.18055e-015 -7.95139e-016 -3.18055e-015 -1.59028e-015 2.38542e-015 -0 -3.18055e-015 -1.59028e-015 -0 -3.18055e-015 -7.95139e-016 -3.18055e-015 46.7676 15.9684 49.4224 57.2264 50.8987 -56.9348 8.91119 27.0067 -34.2518 -44.599 15.6897 -49.5136 -59.682 51.4033 58.84 -7.61569 25.6205 31.6082 
1.77119 53.0747 38.9643 0.00370789 86.0465 180 -0.631631 -3.50739 -0.151943 -1.27619 -7.01285 -0.343667 -1.27619 -7.01287 -0.343668 6.76047e-005 31.5408 -3.45047e-005 1.0485e-006 -32.9238 5.27255e-007 15.4788 10.3901 15.9217 -25.966 20.8561 66.7092 1.58811 31.381 18.3056 58.4342 -18.8719 11.5061 -1.59028e-015 1.59028e-015 3.18055e-015 -2.20695e-031 3.97569e-015 3.18055e-015 1.59028e-015 3.18055e-015 -3.18055e-015 -1.59028e-015 -7.95139e-016 3.18055e-015 -2.64834e-031 4.77083e-015 3.18055e-015 -1.59028e-015 3.18055e-015 -0 6.62086e-031 3.97569e-015 -9.54166e-015 -2.64834e-031 4.77083e-015 3.18055e-015 -1.59028e-015 3.18055e-015 -0 6.62086e-031 3.97569e-015 -9.54166e-015 -1.59028e-015 -7.95139e-016 3.18055e-015 -2.64834e-031 4.77083e-015 3.18055e-015 -1.59028e-015 3.18055e-015 -0 6.62086e-031 3.97569e-015 -9.54166e-015 -2.64834e-031 4.77083e-015 3.18055e-015 -1.59028e-015 3.18055e-015 -0 6.62086e-031 3.97569e-015 -9.54166e-015 -16.0266 10.4695 -17.3581 25.5663 21.3546 -64.6126 -2.48691 31.838 -18.9015 -58.7637 -18.7804 -12.0238 5.29669e-031 2.38542e-015 -1.27222e-014 3.18055e-015 3.97569e-015 -6.36111e-015 3.18055e-015 3.18055e-015 -3.18055e-015 -1.59028e-015 -7.95139e-016 -9.54166e-015 -9.54166e-015 -1.82882e-014 -0 -3.18055e-015 3.18055e-015 -3.18055e-015 1.59028e-015 3.97569e-015 -9.54166e-015 -9.54166e-015 -1.82882e-014 -0 -3.18055e-015 3.18055e-015 -3.18055e-015 1.59028e-015 3.97569e-015 -9.54166e-015 -1.59028e-015 -7.95139e-016 -9.54166e-015 -9.54166e-015 -1.82882e-014 -0 -3.18055e-015 3.18055e-015 -3.18055e-015 1.59028e-015 3.97569e-015 -9.54166e-015 -9.54166e-015 -1.82882e-014 -0 -3.18055e-015 3.18055e-015 -3.18055e-015 1.59028e-015 3.97569e-015 -9.54166e-015 46.5358 16.0297 48.7051 57.491 50.9066 -57.1319 8.13708 27.0299 -33.7076 -44.3587 15.7816 -48.8805 -60.0312 51.4321 59.1056 -6.91374 25.5333 31.098 
1.7756 53.0403 38.7336 0.00370789 86.297 180 -0.631122 -3.39477 -0.149591 -1.2745 -6.78763 -0.337598 -1.2745 -6.78767 -0.337599 4.15327e-005 31.9648 -2.59103e-005 -5.84628e-008 -32.9494 -2.20708e-007 15.5235 10.3617 16.4699 -25.8307 21.0571 66.2425 1.75169 31.3695 18.1147 58.1454 -18.9472 11.3878 2.91267e-006 -1.71187e-006 -1.92235e-007 4.3498e-008 1.64848e-006 -5.71031e-006 1.24235e-006 -1.22002e-006 -1.53637e-007 -3.18055e-015 7.95139e-016 -3.18055e-015 2.91267e-006 -1.71187e-006 -1.92235e-007 4.3498e-008 1.64848e-006 -5.71031e-006 1.24235e-006 -1.22002e-006 -1.53637e-007 2.91267e-006 -1.71187e-006 -1.92235e-007 4.3498e-008 1.64848e-006 -5.71031e-006 1.24235e-006 -1.22002e-006 -1.53637e-007 -3.18055e-015 7.95139e-016 -3.18055e-015 2.91267e-006 -1.71187e-006 -1.92235e-007 4.3498e-008 1.64848e-006 -5.71031e-006 1.24235e-006 -1.22002e-006 -1.53637e-007 2.91267e-006 -1.71187e-006 -1.92235e-007 4.3498e-008 1.64848e-006 -5.71031e-006 1.24235e-006 -1.22002e-006 -1.53637e-007 -16.0643 10.4464 -18.0084 25.3931 21.602 -64.0391 -2.65749 31.8239 -18.6925 -58.4473 -18.8293 -11.9172 -2.3452e-006 4.5943e-007 -1.52886e-007 1.18066e-006 2.08419e-007 3.86636e-006 -2.36132e-006 -4.16837e-007 -7.73273e-006 -0 0 3.18055e-015 -2.3452e-006 4.5943e-007 -1.52886e-007 1.18066e-006 2.08419e-007 3.86636e-006 -2.36132e-006 -4.16837e-007 -7.73273e-006 -2.3452e-006 4.5943e-007 -1.52886e-007 1.18066e-006 2.08419e-007 3.86636e-006 -2.36132e-006 -4.16837e-007 -7.73273e-006 -0 0 3.18055e-015 -2.3452e-006 4.5943e-007 -1.52886e-007 1.18066e-006 2.08419e-007 3.86636e-006 -2.36132e-006 -4.16837e-007 -7.73273e-006 -2.3452e-006 4.5943e-007 -1.52886e-007 1.18066e-006 2.08419e-007 3.86636e-006 -2.36132e-006 -4.16837e-007 -7.73273e-006 46.3041 16.094 47.9886 57.7557 50.9139 -57.3291 7.36305 27.0463 -33.1629 -44.1189 15.8759 -48.2484 -60.3813 51.4599 59.3719 -6.21362 25.4403 30.5892 
1.78004 53.0058 38.5028 0.00370789 86.5475 -180 -0.630616 -3.28217 -0.147244 -1.27283 -6.56247 -0.331549 -1.27284 -6.56249 -0.331549 -5.2165e-006 32.3883 -3.56344e-006 4.30257e-007 -32.9751 1.00411e-007 15.5689 10.3328 17.0179 -25.6934 21.2571 65.7746 1.91516 31.3575 17.9239 57.8563 -19.022 11.269 1.34834e-006 1.11265e-006 -3.30872e-006 -9.20369e-007 -3.8448e-007 3.42377e-006 1.34834e-006 1.11265e-006 -3.30872e-006 1.59028e-015 1.59028e-015 -6.36111e-015 1.34834e-006 1.11265e-006 -3.30872e-006 -9.20369e-007 -3.8448e-007 3.42377e-006 1.34834e-006 1.11265e-006 -3.30872e-006 1.34834e-006 1.11265e-006 -3.30872e-006 -9.20369e-007 -3.8448e-007 3.42377e-006 1.34834e-006 1.11265e-006 -3.30872e-006 1.59028e-015 1.59028e-015 -6.36111e-015 1.34834e-006 1.11265e-006 -3.30872e-006 -9.20369e-007 -3.8448e-007 3.42377e-006 1.34834e-006 1.11265e-006 -3.30872e-006 1.34834e-006 1.11265e-006 -3.30872e-006 -9.20369e-007 -3.8448e-007 3.42377e-006 1.34834e-006 1.11265e-006 -3.30872e-006 -16.1022 10.4237 -18.6585 25.2169 21.8477 -63.4639 -2.82793 31.8094 -18.4837 -58.1308 -18.8776 -11.8103 -4.71435e-007 7.01158e-007 -1.16117e-007 1.00856e-006 -9.99065e-007 -1.79632e-006 -1.47999e-006 1.70022e-006 1.6802e-006 3.18055e-015 -7.95139e-016 -0 -4.71435e-007 7.01158e-007 -1.16117e-007 1.00856e-006 -9.99065e-007 -1.79632e-006 -1.47999e-006 1.70022e-006 1.6802e-006 -4.71435e-007 7.01158e-007 -1.16117e-007 1.00856e-006 -9.99065e-007 -1.79632e-006 -1.47999e-006 1.70022e-006 1.6802e-006 3.18055e-015 -7.95139e-016 -0 -4.71435e-007 7.01158e-007 -1.16117e-007 1.00856e-006 -9.99065e-007 -1.79632e-006 -1.47999e-006 1.70022e-006 1.6802e-006 -4.71435e-007 7.01158e-007 -1.16117e-007 1.00856e-006 -9.99065e-007 -1.79632e-006 -1.47999e-006 1.70022e-006 1.6802e-006 46.0727 16.1611 47.2731 58.0208 50.9207 -57.5265 6.58924 27.0558 -32.6178 -43.8794 15.9728 -47.6173 -60.7318 51.4867 59.6386 -5.51561 25.3415 30.0821 
